<svg width="1600" height="400" viewBox="0 0 1600 400" xmlns="http://www.w3.org/2000/svg">
  <defs>
    <linearGradient id="bg" x1="0" y1="0" x2="1" y2="0">
      <stop offset="0%" stop-color="#05070A"/>
      <stop offset="100%" stop-color="#0A0D12"/>
    </linearGradient>

    <pattern id="grid" width="40" height="40" patternUnits="userSpaceOnUse">
      <path d="M 40 0 L 0 0 0 40" fill="none" stroke="#10151D" stroke-width="1"/>
    </pattern>
  </defs>

  <rect width="1600" height="400" fill="url(#bg)"/>
  <rect width="1600" height="400" fill="url(#grid)" opacity="0.55"/>

  <line x1="110" y1="75" x2="110" y2="325"
        stroke="#4EA1FF"
        stroke-width="2"/>

  <text x="150" y="95"
        fill="#8B949E"
        font-size="13"
        font-family="Inter, Helvetica, Arial, sans-serif"
        letter-spacing="2">
        RESEARCH INTERN — DRDO
  </text>

  <text x="150" y="175"
        fill="#F5F5F7"
        font-size="68"
        font-weight="500"
        font-family="Inter, Helvetica, Arial, sans-serif"
        letter-spacing="-1.5">
        PRABUDDHA SAXENA
  </text>

  <text x="150" y="220"
        fill="#D4D4D8"
        font-size="22"
        font-weight="400"
        font-family="Inter, Helvetica, Arial, sans-serif">
        Electronics &amp; Communication Engineering
  </text>

  <text x="150" y="255"
        fill="#9CA3AF"
        font-size="15"
        font-family="Inter, Helvetica, Arial, sans-serif">
        Building intelligent systems across software and hardware.
  </text>

  <text x="150" y="305"
        fill="#4EA1FF"
        font-size="15"
        font-family="Inter, Helvetica, Arial, sans-serif">
        Embedded Systems · AI Systems · Computer Vision · Full Stack
  </text>

  <g opacity="0.18" stroke="#4EA1FF" fill="none">
    <rect x="1180" y="95" width="110" height="70"/>
    <rect x="1335" y="130" width="95" height="60"/>
    <rect x="1240" y="245" width="150" height="70"/>

    <line x1="1290" y1="130" x2="1335" y2="160"/>
    <line x1="1380" y1="190" x2="1380" y2="245"/>
    <line x1="1315" y1="280" x2="1240" y2="280"/>

    <circle cx="1290" cy="130" r="3" fill="#4EA1FF"/>
    <circle cx="1380" cy="190" r="3" fill="#4EA1FF"/>
    <circle cx="1380" cy="245" r="3" fill="#4EA1FF"/>
  </g>
</svg>